<svg xmlns="http://www.w3.org/2000/svg" viewBox="0 0 113 23" width="113" height="23" fill="none">
  <path d="M26.14 19.75C27.33 21.01 27.89 22.73 27.89 24.93C27.89 27.91 26.66 30.28 24.17 32.03C21.7 33.76 18.25 34.65 13.86 34.65C11.1 34.65 8.44 34.25 5.92 33.44C3.4 32.65 1.43 31.64 0 30.43C0 30.43 2.07 26.8 2.07 26.8C3.5 27.94 5.28 28.85 7.45 29.57C9.59 30.28 11.84 30.63 14.18 30.63C17.29 30.63 19.58 30.13 21.06 29.17C22.57 28.21 23.31 26.83 23.31 25.05C23.31 23.82 22.89 22.83 22.07 22.12C21.26 21.4 20.22 20.86 18.97 20.49C17.71 20.12 16.06 19.77 13.98 19.43C11.22 18.91 9 18.39 7.3 17.85C5.62 17.31 4.19 16.4 3.01 15.09C1.83 13.81 1.23 12.01 1.23 9.71C1.23 6.88 2.42 4.53 4.79 2.73C7.15 0.91 10.46 0 14.7 0C16.89 0 19.09 0.29 21.31 0.88C23.51 1.48 25.3 2.24 26.74 3.18C26.74 3.18 24.74 6.88 24.74 6.88C21.93 4.93 18.57 3.97 14.7 3.97C11.77 3.97 9.55 4.48 8.07 5.52C6.56 6.56 5.82 7.91 5.82 9.59C5.82 10.87 6.24 11.91 7.08 12.7C7.92 13.49 8.98 14.05 10.24 14.42C11.47 14.77 13.2 15.16 15.42 15.56C18.13 16.08 20.3 16.59 21.95 17.11C23.58 17.63 24.98 18.49 26.14 19.75Z" fill="#F5F0EC" transform="matrix(0.3205 0 0 0.3242 62.5508 7.4844)"/>
  <path d="M4.59 15.3C4.89 11.91 6.14 9.21 8.39 7.1C10.6 5.01 13.34 3.97 16.62 3.97C19.95 3.97 22.71 5.01 24.96 7.1C27.18 9.21 28.44 11.91 28.73 15.3C28.73 15.3 4.59 15.3 4.59 15.3ZM33.15 17.29C33.15 13.94 32.43 10.95 31 8.35C29.57 5.73 27.62 3.68 25.11 2.23C22.61 0.74 19.79 0 16.62 0C13.47 0 10.64 0.74 8.12 2.23C5.6 3.68 3.6 5.73 2.17 8.37C0.72 11.01 0 13.99 0 17.29C0 20.62 0.74 23.61 2.27 26.25C3.77 28.85 5.87 30.93 8.56 32.41C11.27 33.92 14.36 34.66 17.86 34.66C20.57 34.66 23.06 34.19 25.33 33.23C27.6 32.29 29.5 30.91 31 29.08C31 29.08 28.42 26.09 28.42 26.09C27.13 27.58 25.58 28.69 23.82 29.45C22.05 30.2 20.1 30.59 17.98 30.59C14.24 30.59 11.13 29.48 8.66 27.31C6.22 25.13 4.87 22.28 4.59 18.72C4.59 18.72 33.07 18.72 33.07 18.72C33.07 18.72 33.15 17.29 33.15 17.29Z" fill="#F5F0EC" transform="matrix(0.3205 0 0 0.3242 51.9531 7.4844)"/>
  <path d="M33.15 13.04C33.83 13.04 34.49 13.07 35.15 13.12C37.29 13.3 39.35 13.77 41.28 14.47C46.15 16.25 50.28 19.56 53.07 23.83C51.91 14.95 46.51 7.4 38.96 3.31C35.08 1.2 30.63 0 25.9 0C21.91 0 15.71 0.84 12.29 2.37C7.17 4.22 3.82 7.23 0 10.64C0 10.64 15.83 20.53 15.83 20.53C20.16 15.91 26.31 13.04 33.15 13.04Z" fill="#003EDC" transform="matrix(0.3205 0 0 0.3242 0 0)"/>
  <path d="M28.27 24.23C27.15 26.27 25.65 27.83 23.7 28.93C21.75 30.02 19.61 30.59 17.22 30.59C14.79 30.59 12.62 30.02 10.73 28.93C8.81 27.83 7.28 26.27 6.19 24.23C5.08 22.2 4.54 19.89 4.54 17.29C4.54 14.71 5.08 12.42 6.19 10.41C7.28 8.39 8.81 6.84 10.73 5.71C12.62 4.59 14.79 4.03 17.22 4.03C19.61 4.03 21.75 4.59 23.7 5.71C25.65 6.84 27.15 8.39 28.27 10.41C29.37 12.42 29.91 14.71 29.91 17.29C29.91 19.89 29.37 22.2 28.27 24.23ZM32.3 8.29C30.85 5.67 28.8 3.63 26.22 2.17C23.63 0.74 20.74 0 17.55 0C14.7 0 12.13 0.62 9.86 1.83C7.62 3.04 5.8 4.77 4.41 7.01C4.41 7.01 4.41 0.28 4.41 0.28C4.41 0.28 0 0.28 0 0.28C0 0.28 0 46.89 0 46.89C0 46.89 4.61 46.89 4.61 46.89C4.61 46.89 4.61 27.93 4.61 27.93C6.01 30.12 7.85 31.8 10.06 32.93C12.31 34.09 14.79 34.66 17.55 34.66C20.79 34.66 23.7 33.94 26.26 32.49C28.83 31.04 30.85 29.01 32.3 26.37C33.79 23.73 34.51 20.72 34.51 17.29C34.51 13.94 33.79 10.93 32.3 8.29Z" fill="#F5F0EC" transform="matrix(0.3205 0 0 0.3242 72.877 7.4844)"/>
  <path d="M4.59 15.3C4.91 11.91 6.16 9.21 8.39 7.1C10.6 5.01 13.37 3.97 16.64 3.97C19.95 3.97 22.74 5.01 24.96 7.1C27.18 9.21 28.44 11.91 28.73 15.3C28.73 15.3 4.59 15.3 4.59 15.3ZM33.15 17.29C33.15 13.94 32.43 10.95 31 8.35C29.59 5.73 27.62 3.68 25.11 2.23C22.61 0.74 19.77 0 16.64 0C13.49 0 10.65 0.74 8.11 2.23C5.59 3.68 3.6 5.73 2.17 8.37C0.72 11.01 0 13.99 0 17.29C0 20.62 0.76 23.61 2.27 26.25C3.77 28.85 5.87 30.93 8.58 32.41C11.27 33.92 14.38 34.66 17.85 34.66C20.59 34.66 23.08 34.19 25.35 33.23C27.62 32.29 29.49 30.91 31 29.08C31 29.08 28.41 26.09 28.41 26.09C27.13 27.58 25.6 28.69 23.82 29.45C22.04 30.2 20.1 30.59 18.01 30.59C14.23 30.59 11.12 29.48 8.68 27.31C6.22 25.13 4.86 22.28 4.59 18.72C4.59 18.72 33.07 18.72 33.07 18.72C33.07 18.72 33.15 17.29 33.15 17.29Z" fill="#F5F0EC" transform="matrix(0.3205 0 0 0.3242 84.6953 7.4844)"/>
  <path d="M40.86 17.25C40.86 17.25 40.85 17.25 40.85 17.25C40.37 17.29 39.89 17.32 39.42 17.34C39.42 17.34 39.3 17.34 39.3 17.34C37.31 17.39 35.3 17.19 33.35 16.74C30.82 16.16 28.36 15.17 26.09 13.74C24.59 12.81 23.18 11.69 21.88 10.39C21.51 10.03 21.16 9.65 20.83 9.27C18.4 6.51 16.73 3.34 15.8 0C13.1 1.28 10.68 3.06 8.66 5.2C6.33 7.67 4.53 10.64 3.43 13.93C3.21 14.6 3.01 15.29 2.84 16C2.84 16 2.36 18.7 2.36 18.7C2.36 18.7 0.45 29.52 0.45 29.52C0.45 29.52 0 32.04 0 32.04C0 32.04 1.66 30.62 1.66 30.62C1.66 30.62 4.45 28.22 4.45 28.22C4.45 28.22 4 22.18 4 22.18C3.9 21.57 3.85 20.95 3.85 20.31C3.85 20.31 3.85 20.25 3.85 20.25C3.85 20.25 20.03 20.61 20.03 20.61C17.4 21.81 12.76 25.85 10.95 27.75C10.95 27.75 10.93 27.78 10.93 27.78C10.52 28.21 10.13 28.65 9.75 29.11C9.75 29.11 8.37 34.65 8.37 34.65C8.37 34.65 8.21 35.29 8.21 35.29C8.21 35.29 8.22 35.29 8.22 35.29C8.22 35.29 7.83 36.85 7.83 36.85C7.83 36.85 7.76 37.14 7.76 37.14C7.76 37.14 3.85 52.86 3.85 52.86C3.85 52.86 18.6 44.97 18.6 44.97C18.6 44.97 18.74 44.24 18.74 44.24C18.74 44.24 19.3 41.3 19.3 41.3C19.36 41.02 19.42 40.78 19.48 40.57C19.64 39.97 19.72 39.68 19.82 39.41C19.98 38.91 20.16 38.42 20.33 37.98C23.7 29.21 27.93 27.21 27.65 27.21C27.87 27.03 28.11 26.86 28.35 26.7C30.4 25.27 33.08 24.24 35.98 23.84C36.42 23.78 36.92 23.73 37.44 23.72C37.44 23.72 37.58 23.71 37.58 23.71C37.58 23.71 40.25 20.74 40.25 20.74C40.25 20.74 43.78 16.8 43.78 16.8C43.78 16.8 43.59 16.84 43.59 16.84C42.68 17.03 41.77 17.17 40.86 17.25Z" fill="#003EDC" transform="matrix(0.3205 0 0 0.3242 2.8711 5.8633)"/>
  <path d="M27.47 25.57C27.47 25.57 30.9 27.91 30.9 27.91C29.55 30.11 27.72 31.79 25.4 32.92C23.06 34.08 20.44 34.65 17.56 34.65C14.18 34.65 11.17 33.91 8.53 32.45C5.87 30.97 3.8 28.92 2.27 26.26C0.76 23.6 0 20.61 0 17.28C0 13.98 0.76 10.99 2.27 8.36C3.8 5.72 5.87 3.67 8.53 2.21C11.17 0.74 14.18 0 17.56 0C20.49 0 23.11 0.59 25.43 1.72C27.75 2.86 29.55 4.53 30.9 6.73C30.9 6.73 27.47 9.07 27.47 9.07C26.34 7.39 24.91 6.14 23.18 5.27C21.46 4.43 19.58 4.02 17.56 4.02C15.09 4.02 12.87 4.56 10.93 5.67C8.95 6.78 7.42 8.33 6.31 10.35C5.23 12.4 4.69 14.69 4.69 17.28C4.69 19.92 5.23 22.24 6.31 24.26C7.42 26.26 8.95 27.81 10.93 28.92C12.87 30.01 15.09 30.58 17.56 30.58C19.58 30.58 21.46 30.16 23.18 29.34C24.91 28.5 26.34 27.27 27.47 25.57Z" fill="#F5F0EC" transform="matrix(0.3205 0 0 0.3242 95.9043 7.4844)"/>
  <path d="M15.53 36.13C14.89 36.7 14.12 37.12 13.24 37.41C12.35 37.74 11.44 37.88 10.48 37.88C8.57 37.88 7.12 37.33 6.11 36.28C5.1 35.24 4.58 33.69 4.58 31.66C4.58 31.66 4.58 11.34 4.58 11.34C4.58 11.34 14.94 11.34 14.94 11.34C14.94 11.34 14.94 7.45 14.94 7.45C14.94 7.45 4.58 7.45 4.58 7.45C4.58 7.45 4.58 0 4.58 0C4.58 0 0 0 0 0C0 0 0 31.91 0 31.91C0 35.06 0.86 37.51 2.58 39.23C4.31 40.97 6.77 41.83 9.96 41.83C11.34 41.83 12.67 41.63 13.95 41.21C15.21 40.79 16.29 40.2 17.16 39.44C17.16 39.44 15.53 36.13 15.53 36.13Z" fill="#F5F0EC" transform="matrix(0.3205 0 0 0.3242 107.4961 5.1953)"/>
  <path d="M21.91 23.2C21.36 24.67 20.48 25.8 19.18 26.57C17.91 27.33 16.45 27.7 14.81 27.7C13.12 27.7 11.8 27.36 10.84 26.63C9.88 25.91 9.38 24.93 9.38 23.69C9.38 21.11 11.35 19.81 15.3 19.81C15.3 19.81 21.91 19.81 21.91 19.81C21.91 19.81 21.91 23.2 21.91 23.2ZM27.38 3.69C24.63 1.24 20.68 0 15.54 0C12.89 0 10.28 0.35 7.74 1.05C5.22 1.76 3.03 2.75 1.23 4.02C1.23 4.02 4.68 10.74 4.68 10.74C5.88 9.8 7.34 9.05 9.05 8.48C10.75 7.94 12.48 7.66 14.25 7.66C16.81 7.66 18.71 8.22 19.97 9.35C21.27 10.48 21.91 12.1 21.91 14.19C21.91 14.19 14.25 14.19 14.25 14.19C9.41 14.19 5.81 15.09 3.48 16.84C1.15 18.61 0 21.06 0 24.14C0 26.06 0.49 27.8 1.49 29.3C2.47 30.83 3.9 32.03 5.76 32.9C7.64 33.74 9.85 34.19 12.42 34.19C17.35 34.19 20.71 32.64 22.51 29.56C22.51 29.56 22.51 33.7 22.51 33.7C22.51 33.7 31.52 33.7 31.52 33.7C31.52 33.7 31.52 14.75 31.52 14.75C31.52 9.82 30.15 6.13 27.38 3.69Z" fill="#F5F0EC" transform="matrix(0.3205 0 0 0.3242 19.2148 7.9297)"/>
  <path d="M4.59 15.3C4.91 11.91 6.16 9.21 8.39 7.1C10.6 5.01 13.37 3.97 16.64 3.97C19.95 3.97 22.74 5.01 24.96 7.1C27.18 9.21 28.44 11.91 28.73 15.3C28.73 15.3 4.59 15.3 4.59 15.3ZM33.15 17.29C33.15 13.94 32.43 10.95 31 8.35C29.59 5.73 27.62 3.68 25.11 2.23C22.61 0.74 19.77 0 16.64 0C13.49 0 10.65 0.74 8.11 2.23C5.59 3.68 3.6 5.73 2.17 8.37C0.72 11.01 0 13.99 0 17.29C0 20.62 0.76 23.61 2.27 26.25C3.77 28.85 5.87 30.93 8.58 32.41C11.27 33.92 14.38 34.66 17.85 34.66C20.59 34.66 23.08 34.19 25.35 33.23C27.62 32.29 29.49 30.91 31 29.08C31 29.08 28.41 26.09 28.41 26.09C27.13 27.58 25.6 28.69 23.82 29.45C22.04 30.2 20.1 30.59 18.01 30.59C14.23 30.59 11.12 29.48 8.68 27.31C6.22 25.13 4.86 22.28 4.59 18.72C4.59 18.72 33.07 18.72 33.07 18.72C33.07 18.72 33.15 17.29 33.15 17.29Z" fill="#F5F0EC" transform="matrix(0.3205 0 0 0.3242 84.6953 7.4844)"/>
  <path d="M28.27 24.23C27.15 26.27 25.65 27.83 23.7 28.93C21.75 30.02 19.61 30.59 17.22 30.59C14.79 30.59 12.62 30.02 10.73 28.93C8.81 27.83 7.28 26.27 6.19 24.23C5.08 22.2 4.54 19.89 4.54 17.29C4.54 14.71 5.08 12.42 6.19 10.41C7.28 8.39 8.81 6.84 10.73 5.71C12.62 4.59 14.79 4.03 17.22 4.03C19.61 4.03 21.75 4.59 23.7 5.71C25.65 6.84 27.15 8.39 28.27 10.41C29.37 12.42 29.91 14.71 29.91 17.29C29.91 19.89 29.37 22.2 28.27 24.23ZM32.3 8.29C30.85 5.67 28.8 3.63 26.22 2.17C23.63 0.74 20.74 0 17.55 0C14.7 0 12.13 0.62 9.86 1.83C7.62 3.04 5.8 4.77 4.41 7.01C4.41 7.01 4.41 0.28 4.41 0.28C4.41 0.28 0 0.28 0 0.28C0 0.28 0 46.89 0 46.89C0 46.89 4.61 46.89 4.61 46.89C4.61 46.89 4.61 27.93 4.61 27.93C6.01 30.12 7.85 31.8 10.06 32.93C12.31 34.09 14.79 34.66 17.55 34.66C20.79 34.66 23.7 33.94 26.26 32.49C28.83 31.04 30.85 29.01 32.3 26.37C33.79 23.73 34.51 20.72 34.51 17.29C34.51 13.94 33.79 10.93 32.3 8.29Z" fill="#F5F0EC" transform="matrix(0.3205 0 0 0.3242 72.877 7.4844)"/>
  <path d="M21.91 23.2C21.36 24.67 20.48 25.8 19.18 26.57C17.91 27.33 16.45 27.7 14.81 27.7C13.12 27.7 11.8 27.36 10.84 26.63C9.88 25.91 9.38 24.93 9.38 23.69C9.38 21.11 11.35 19.81 15.3 19.81C15.3 19.81 21.91 19.81 21.91 19.81C21.91 19.81 21.91 23.2 21.91 23.2ZM27.38 3.69C24.63 1.24 20.68 0 15.54 0C12.89 0 10.28 0.35 7.74 1.05C5.22 1.76 3.03 2.75 1.23 4.02C1.23 4.02 4.68 10.74 4.68 10.74C5.88 9.8 7.34 9.05 9.05 8.48C10.75 7.94 12.48 7.66 14.25 7.66C16.81 7.66 18.71 8.22 19.97 9.35C21.27 10.48 21.91 12.1 21.91 14.19C21.91 14.19 14.25 14.19 14.25 14.19C9.41 14.19 5.81 15.09 3.48 16.84C1.15 18.61 0 21.06 0 24.14C0 26.06 0.49 27.8 1.49 29.3C2.47 30.83 3.9 32.03 5.76 32.9C7.64 33.74 9.85 34.19 12.42 34.19C17.35 34.19 20.71 32.64 22.51 29.56C22.51 29.56 22.51 33.7 22.51 33.7C22.51 33.7 31.52 33.7 31.52 33.7C31.52 33.7 31.52 14.75 31.52 14.75C31.52 9.82 30.15 6.13 27.38 3.69Z" fill="#F5F0EC" transform="matrix(0.3205 0 0 0.3242 19.2148 7.9297)"/>
  <path d="M26.14 19.76C24.98 18.5 23.58 17.64 21.95 17.12C20.29 16.6 18.13 16.08 15.42 15.57C13.19 15.18 11.47 14.78 10.24 14.43C8.98 14.06 7.92 13.5 7.08 12.71C6.24 11.91 5.82 10.88 5.82 9.6C5.82 7.92 6.56 6.57 8.07 5.53C9.55 4.5 11.76 3.97 14.7 3.97C18.57 3.97 21.93 4.93 24.73 6.89C24.73 6.89 26.74 3.19 26.74 3.19C25.3 2.25 23.5 1.49 21.31 0.9C19.09 0.3 16.89 0 14.7 0C10.45 0 7.15 0.92 4.78 2.74C2.41 4.54 1.24 6.89 1.24 9.72C1.24 12.01 1.83 13.81 3.01 15.1C4.19 16.41 5.62 17.31 7.3 17.86C9 18.4 11.22 18.92 13.99 19.44C16.06 19.79 17.71 20.13 18.96 20.5C20.23 20.87 21.26 21.41 22.07 22.12C22.89 22.84 23.3 23.83 23.3 25.06C23.3 26.84 22.56 28.22 21.07 29.18C19.58 30.14 17.29 30.63 14.18 30.63C11.84 30.63 9.59 30.29 7.45 29.57C5.28 28.85 3.51 27.95 2.08 26.81C2.08 26.81 0 30.44 0 30.44C1.43 31.65 3.41 32.66 5.92 33.45C8.44 34.26 11.1 34.66 13.86 34.66C18.25 34.66 21.7 33.76 24.18 32.04C26.66 30.29 27.9 27.93 27.9 24.94C27.9 22.75 27.33 21.02 26.14 19.76Z" fill="#F5F0EC" transform="matrix(0.3205 0 0 0.3242 62.5508 7.4844)"/>
  <path d="M47.84 26.87C47.84 26.87 35.77 26.87 35.77 26.87C35.77 26.87 35.77 4.14 35.77 4.14C35.77 4.14 47.84 4.14 47.84 4.14C52.33 4.14 55.76 5.12 58.12 7.1C60.49 9.05 61.67 11.85 61.67 15.53C61.67 19.13 60.49 21.9 58.12 23.9C55.76 25.87 52.33 26.87 47.84 26.87ZM24.3 36C22.7 37.66 20.68 38.51 18.26 38.51C15.79 38.51 13.76 37.66 12.16 36C10.53 34.35 9.73 32.13 9.73 29.32C9.73 26.53 10.53 24.3 12.16 22.63C13.76 20.96 15.79 20.12 18.26 20.12C20.68 20.12 22.7 20.96 24.3 22.63C25.9 24.3 26.69 26.53 26.69 29.32C26.69 32.13 25.9 34.35 24.3 36ZM56.13 29.79C59.43 28.71 61.99 26.95 63.79 24.51C65.57 22.06 66.48 19.09 66.48 15.53C66.48 10.7 64.83 6.9 61.55 4.14C58.26 1.38 53.73 0 47.96 0C47.96 0 26.51 0.15 26.51 0.15C26.51 0.15 26.51 16.24 26.51 16.24C24.13 13.56 20.82 12.22 16.59 12.22C13.46 12.22 10.62 12.93 8.11 14.34C5.57 15.72 3.6 17.71 2.14 20.31C0.7 22.91 0 25.9 0 29.32C0 32.73 0.7 35.74 2.14 38.32C3.6 40.91 5.57 42.91 8.11 44.3C10.62 45.71 13.46 46.41 16.59 46.41C21.1 46.41 24.56 44.98 26.95 42.09C26.95 42.09 26.95 45.92 26.95 45.92C26.95 45.92 36.14 45.92 36.14 45.92C36.14 45.92 36.14 30.94 36.14 30.94C36.14 30.94 47.96 30.94 47.96 30.94C49.22 30.94 50.42 30.88 51.59 30.75C51.59 30.75 61.94 45.32 61.94 45.32C61.94 45.32 67.2 45.32 67.2 45.32C67.2 45.32 56.13 29.79 56.13 29.79Z" fill="#F5F0EC" transform="matrix(0.3205 0 0 0.3242 29.9824 3.9648)"/>
  <path d="M4.59 15.3C4.89 11.91 6.14 9.21 8.39 7.1C10.6 5.01 13.34 3.97 16.62 3.97C19.95 3.97 22.71 5.01 24.96 7.1C27.18 9.21 28.44 11.91 28.73 15.3C28.73 15.3 4.59 15.3 4.59 15.3ZM33.15 17.29C33.15 13.94 32.43 10.95 31 8.35C29.57 5.73 27.62 3.68 25.11 2.23C22.61 0.74 19.79 0 16.62 0C13.47 0 10.64 0.74 8.12 2.23C5.6 3.68 3.6 5.73 2.17 8.37C0.72 11.01 0 13.99 0 17.29C0 20.62 0.74 23.61 2.27 26.25C3.77 28.85 5.87 30.93 8.56 32.41C11.27 33.92 14.36 34.66 17.86 34.66C20.57 34.66 23.06 34.19 25.33 33.23C27.6 32.29 29.5 30.91 31 29.08C31 29.08 28.42 26.09 28.42 26.09C27.13 27.58 25.58 28.69 23.82 29.45C22.05 30.2 20.1 30.59 17.98 30.59C14.24 30.59 11.13 29.48 8.66 27.31C6.22 25.13 4.87 22.28 4.59 18.72C4.59 18.72 33.07 18.72 33.07 18.72C33.07 18.72 33.15 17.29 33.15 17.29Z" fill="#F5F0EC" transform="matrix(0.3205 0 0 0.3242 51.9531 7.4844)"/>
  <path d="M17.17 39.43C16.31 40.2 15.22 40.79 13.96 41.21C12.68 41.63 11.35 41.83 9.97 41.83C6.79 41.83 4.32 40.96 2.59 39.24C0.87 37.51 0 35.07 0 31.91C0 31.91 0 0 0 0C0 0 4.59 0 4.59 0C4.59 0 4.59 7.45 4.59 7.45C4.59 7.45 14.95 7.45 14.95 7.45C14.95 7.45 14.95 11.34 14.95 11.34C14.95 11.34 4.59 11.34 4.59 11.34C4.59 11.34 4.59 31.67 4.59 31.67C4.59 33.69 5.11 35.24 6.12 36.28C7.13 37.34 8.59 37.88 10.49 37.88C11.45 37.88 12.36 37.73 13.25 37.41C14.14 37.12 14.9 36.7 15.54 36.13C15.54 36.13 17.17 39.43 17.17 39.43Z" fill="#F5F0EC" transform="matrix(0.3205 0 0 0.3242 107.4961 5.1953)"/>
</svg>
