<svg xmlns="http://www.w3.org/2000/svg" viewBox="0 0 32 32">
  <rect width="32" height="32" rx="6" fill="#1B5B31"/>
  <path d="M4.62 19C3.367 19 2.28 18.78 1.36 18.34C0.453 17.913 0 17.253 0 16.36C0 15.827 0.22 15.353 0.66 14.94C1.113 14.527 1.687 14.187 2.38 13.92C3.073 13.64 3.86 13.393 4.74 13.18C4.913 13.127 5.053 13.093 5.16 13.08C5.16 13.08 5.54 13.48 5.54 13.48C4.953 13.667 4.473 13.86 4.1 14.06C3.727 14.26 3.44 14.487 3.24 14.74C3.04 14.98 2.94 15.247 2.94 15.54C2.94 15.953 3.127 16.24 3.5 16.4C3.887 16.573 4.393 16.66 5.02 16.66C5.62 16.66 6.193 16.593 6.74 16.46C7.3 16.327 7.76 16.133 8.12 15.88C8.48 15.627 8.66 15.327 8.66 14.98C8.66 14.753 8.56 14.573 8.36 14.44C8.16 14.307 7.88 14.24 7.52 14.24C7.2 14.24 6.873 14.273 6.54 14.34C6.207 14.393 5.793 14.48 5.3 14.6C4.873 14.72 4.507 14.807 4.2 14.86C3.893 14.927 3.607 14.96 3.34 14.96C2.793 14.96 2.287 14.867 1.82 14.68C1.367 14.48 1 14.213 0.72 13.88C0.453 13.533 0.32 13.14 0.32 12.7C0.32 12.087 0.627 11.553 1.24 11.1C1.867 10.633 2.727 10.227 3.82 9.88C3.82 9.88 4.48 10.46 4.48 10.46C4.307 10.513 4.147 10.567 4 10.62C3.653 10.74 3.393 10.873 3.22 11.02C3.047 11.167 2.96 11.367 2.96 11.62C2.96 11.833 3.047 11.993 3.22 12.1C3.407 12.207 3.64 12.26 3.92 12.26C4.227 12.26 4.547 12.24 4.88 12.2C5.213 12.147 5.56 12.08 5.92 12C6.493 11.893 6.993 11.813 7.42 11.76C7.847 11.707 8.313 11.68 8.82 11.68C9.713 11.68 10.453 11.893 11.04 12.32C11.64 12.747 11.94 13.4 11.94 14.28C11.94 15.293 11.56 16.153 10.8 16.86C10.053 17.58 9.113 18.113 7.98 18.46C6.847 18.82 5.727 19 4.62 19ZM5.46 11.3C4.513 11.3 3.673 11.14 2.94 10.82C2.22 10.487 1.653 10.027 1.24 9.44C0.84 8.853 0.64 8.193 0.64 7.46C0.64 6.74 0.84 6.093 1.24 5.52C1.653 4.933 2.227 4.48 2.96 4.16C3.693 3.827 4.527 3.66 5.46 3.66C6.033 3.66 6.493 3.707 6.84 3.8C7.2 3.893 7.587 4.02 8 4.18C8.16 4.247 8.307 4.307 8.44 4.36C8.587 4.4 8.727 4.42 8.86 4.42C9.207 4.42 9.453 4.3 9.6 4.06C9.747 3.82 9.82 3.507 9.82 3.12C9.82 3.12 12.34 3.92 12.34 3.92C12.327 4.427 12.12 4.82 11.72 5.1C11.333 5.367 10.82 5.5 10.18 5.5C10.02 5.487 9.84 5.473 9.64 5.46C10.067 6.047 10.28 6.713 10.28 7.46C10.28 8.193 10.073 8.853 9.66 9.44C9.26 10.027 8.693 10.487 7.96 10.82C7.227 11.14 6.393 11.3 5.46 11.3ZM5.46 9.34C5.793 9.34 6.087 9.26 6.34 9.1C6.593 8.94 6.787 8.72 6.92 8.44C7.053 8.147 7.12 7.82 7.12 7.46C7.12 6.927 6.967 6.487 6.66 6.14C6.367 5.793 5.967 5.62 5.46 5.62C5.127 5.62 4.833 5.7 4.58 5.86C4.327 6.02 4.127 6.24 3.98 6.52C3.847 6.8 3.78 7.113 3.78 7.46C3.78 8.007 3.933 8.46 4.24 8.82C4.56 9.167 4.967 9.34 5.46 9.34Z" fill="#F5F0EC" transform="translate(9.6 6.2) scale(1.03)"/>
</svg>
